HIERARCHY
ROOT hip
{
	OFFSET 0.000000 0.000000 0.000000
	CHANNELS 6 Xposition Yposition Zposition Zrotation Yrotation Xrotation 
	JOINT lhipjoint
	{
		OFFSET 0.000000 0.000000 0.000000
		CHANNELS 3 Zrotation Yrotation Xrotation
		JOINT lfemur
		{
			OFFSET 1.363060 -1.794630 0.839290
			CHANNELS 3 Zrotation Yrotation Xrotation
			JOINT ltibia
			{
				OFFSET 2.448110 -6.726130 0.000000
				CHANNELS 3 Zrotation Yrotation Xrotation
				JOINT lfoot
				{
					OFFSET 2.562200 -7.039590 0.000000
					CHANNELS 3 Zrotation Yrotation Xrotation
					JOINT ltoes
					{
						OFFSET 0.157640 -0.433110 2.322550
						CHANNELS 3 Zrotation Yrotation Xrotation
						End Site
						{
							OFFSET 0.000000 0.000000 0.000000
						}
					}
				}
			}
		}
	}
	JOINT rhipjoint
	{
		OFFSET 0.000000 0.000000 0.000000
		CHANNELS 3 Zrotation Yrotation Xrotation
		JOINT rfemur
		{
			OFFSET -1.305520 -1.794630 0.839290
			CHANNELS 3 Zrotation Yrotation Xrotation
			JOINT rtibia
			{
				OFFSET -2.542530 -6.985550 0.000000
				CHANNELS 3 Zrotation Yrotation Xrotation
				JOINT rfoot
				{
					OFFSET -2.568260 -7.056230 0.000000
					CHANNELS 3 Zrotation Yrotation Xrotation
					JOINT rtoes
					{
						OFFSET -0.164730 -0.452590 2.363150
						CHANNELS 3 Zrotation Yrotation Xrotation
						End Site
						{
							OFFSET 0.000000 0.000000 0.000000
						}
					}
				}
			}
		}
	}
	JOINT lowerback
	{
		OFFSET 0.000000 0.000000 0.000000
		CHANNELS 3 Zrotation Yrotation Xrotation
		JOINT upperback
		{
			OFFSET 0.028270 2.035590 -0.193380
			CHANNELS 3 Zrotation Yrotation Xrotation
			JOINT thorax
			{
				OFFSET 0.056720 2.048850 -0.042750
				CHANNELS 3 Zrotation Yrotation Xrotation
				JOINT lowerneck
				{
					OFFSET 0.000000 0.000000 0.000000
					CHANNELS 3 Zrotation Yrotation Xrotation
					JOINT upperneck
					{
						OFFSET -0.054170 1.746240 0.172020
						CHANNELS 3 Zrotation Yrotation Xrotation
						JOINT head
						{
							OFFSET 0.104070 1.761360 -0.123970
							CHANNELS 3 Zrotation Yrotation Xrotation
							End Site
							{
								OFFSET 0.000000 0.000000 0.000000
							}
						}
					}
				}
				JOINT lclavicle
				{
					OFFSET 0.000000 0.000000 0.000000
					CHANNELS 3 Zrotation Yrotation Xrotation
					JOINT lhumerus
					{
						OFFSET 3.362410 1.200890 -0.311210
						CHANNELS 3 Zrotation Yrotation Xrotation
						JOINT lradius
						{
							OFFSET 4.983000 -0.000000 -0.000000
							CHANNELS 3 Zrotation Yrotation Xrotation
							JOINT lwrist
							{
								OFFSET 3.483560 -0.000000 -0.000000
								CHANNELS 3 Zrotation Yrotation Xrotation
								JOINT lhand
								{
									OFFSET 0.000000 0.000000 0.000000
									CHANNELS 3 Zrotation Yrotation Xrotation
									JOINT lfingers
									{
										OFFSET 0.715260 -0.000000 -0.000000
										CHANNELS 3 Zrotation Yrotation Xrotation
										End Site
										{
											OFFSET 0.000000 0.000000 0.000000
										}
									}
								}
								JOINT lthumb
								{
									OFFSET 0.000000 0.000000 0.000000
									CHANNELS 3 Zrotation Yrotation Xrotation
									End Site
									{
										OFFSET 0.000000 0.000000 0.000000
									}
								}
							}
						}
					}
				}
				JOINT rclavicle
				{
					OFFSET 0.000000 0.000000 0.000000
					CHANNELS 3 Zrotation Yrotation Xrotation
					JOINT rhumerus
					{
						OFFSET -3.136600 1.374050 -0.404650
						CHANNELS 3 Zrotation Yrotation Xrotation
						JOINT rradius
						{
							OFFSET -5.241900 -0.000000 -0.000000
							CHANNELS 3 Zrotation Yrotation Xrotation
							JOINT rwrist
							{
								OFFSET -3.444170 -0.000000 -0.000000
								CHANNELS 3 Zrotation Yrotation Xrotation
								JOINT rhand
								{
									OFFSET 0.000000 0.000000 0.000000
									CHANNELS 3 Zrotation Yrotation Xrotation
									JOINT rfingers
									{
										OFFSET -0.622530 -0.000000 -0.000000
										CHANNELS 3 Zrotation Yrotation Xrotation
										End Site
										{
											OFFSET 0.000000 0.000000 0.000000
										}
									}
								}
								JOINT rthumb
								{
									OFFSET 0.000000 0.000000 0.000000
									CHANNELS 3 Zrotation Yrotation Xrotation
									End Site
									{
										OFFSET 0.000000 0.000000 0.000000
									}
								}
							}
						}
					}
				}
			}
		}
	}
}
MOTION
Frames: 9
Frame Time: 0.008333
0.459536 17.258575 2.952944 154.409839 -13.073966 179.945004 -9.620018 -3.587729 -0.373606 28.181251 19.218898 -70.991331 27.835091 15.030407 116.828635 0.995898 -6.745308 -13.723741 0.009900 -0.642300 -1.765000 9.538920 7.543726 -3.517268 -23.153573 -3.506322 -4.366768 -2.227879 -13.980580 34.239262 0.230529 15.328278 -5.897261 -0.512900 4.590400 -12.743900 3.275994 1.956882 35.708631 0.291349 -0.586418 -0.808910 -8.713054 -1.704509 6.862727 1.447202 13.804823 -9.951789 -19.228697 22.816669 -0.634930 -8.432400 9.938200 3.040100 -7.382261 -3.061531 3.463352 -51.507335 -7.891589 59.518931 135.020007 -46.003397 -97.724345 0.275971 1.401435 52.325638 44.960825 -16.929003 -17.833700 -7.125000 0.000000 0.000000 11.211100 5.145400 -10.365200 8.772887 4.758470 4.457975 59.288574 -9.195397 2.391238 -63.219891 58.390633 -35.314377 -0.622165 -1.593106 0.336686 -11.743905 16.747108 -3.561800 7.125000 0.000000 0.000000 11.073400 -11.496800 8.814600 
0.461596 17.255440 2.908423 153.132426 -12.981503 -179.364347 -9.682277 -3.652984 -0.449246 26.901118 19.569871 -70.433080 26.413859 15.712083 112.006746 0.827377 -3.531393 -14.272378 0.000700 -0.164800 -0.452700 9.964677 7.521806 -3.294347 -25.065783 -4.258988 -5.344997 -2.225365 -14.077625 34.913461 0.184094 15.291133 -6.135604 -0.492000 4.497200 -12.479700 2.367597 1.996066 34.992105 0.206368 -0.935092 -0.791171 -8.808683 -1.907783 7.120662 1.535334 13.925484 -9.583039 -19.316458 22.980305 -0.909618 -8.534400 10.043100 2.880400 -7.547115 -3.091615 3.507946 -49.475239 -6.792052 55.209340 135.252860 -46.079583 -98.239278 0.308084 1.340689 53.754803 48.193342 -18.094172 -20.907300 -7.125000 0.000000 0.000000 12.816800 2.409400 -12.589700 8.810945 4.758020 4.426698 59.487828 -11.013315 1.472877 -65.514130 58.790595 -37.343929 -0.624013 -1.583141 0.391229 -11.954192 17.112185 -3.698500 7.125000 0.000000 0.000000 10.938600 -11.121500 8.789100 
0.460790 17.245676 2.861305 151.730800 -12.923248 -178.685226 -9.745062 -3.717365 -0.527744 25.330254 19.872334 -69.560212 24.731734 16.355504 106.477421 0.600157 -0.408285 -14.585530 0.012300 -0.717000 -1.970500 10.423595 7.480074 -3.052401 -27.131909 -5.108202 -6.397346 -2.269986 -14.214314 35.796848 0.121259 15.301660 -6.434868 -0.470500 4.399500 -12.203500 1.397690 2.016567 34.224881 0.108816 -1.335710 -0.769526 -8.953495 -2.137550 7.404661 1.653730 14.039320 -9.132842 -19.420417 23.128103 -1.202622 -8.659200 10.148600 2.693600 -7.726403 -3.117427 3.552796 -47.380276 -5.735151 50.463357 134.896693 -46.501800 -98.287185 0.321948 1.268207 54.561211 51.127223 -18.860669 -23.715100 -7.125000 0.000000 0.000000 14.270900 0.101900 -14.709500 8.849605 4.754453 4.396558 59.650512 -12.959287 0.700001 -67.747654 59.153571 -39.345201 -0.639242 -1.580124 0.174889 -12.305078 17.750108 -3.933100 7.125000 0.000000 0.000000 10.731000 -10.454400 8.764900 
0.450220 17.218175 2.809888 150.297870 -12.867991 -177.984594 -9.801285 -3.782752 -0.610722 23.518682 20.245768 -68.228344 22.729564 16.915716 100.079142 0.311295 2.771397 -14.649892 0.171000 -2.663600 -7.343600 10.895390 7.397577 -2.787848 -29.221616 -6.158870 -7.679809 -2.377698 -14.373133 36.889992 0.023750 15.271696 -7.014499 -0.576200 4.860900 -13.512300 0.468812 2.002870 33.323733 -0.005919 -1.778131 -0.744996 -9.221939 -2.368874 7.747085 1.797188 14.139367 -8.648651 -19.479771 23.250351 -1.475478 -8.772800 10.251700 2.485100 -7.926579 -3.134500 3.584118 -45.099760 -4.819938 45.287804 133.765884 -47.370360 -97.710555 0.302136 1.187949 54.541261 53.050082 -18.103069 -24.350800 -7.125000 0.000000 0.000000 15.530800 0.239300 -16.068500 8.885625 4.747779 4.367275 59.766402 -14.998346 0.098019 -69.938883 59.481371 -41.326387 -0.658764 -1.567992 -0.290041 -12.449206 18.491952 -4.114600 7.125000 0.000000 0.000000 10.669200 -9.716300 8.875000 
0.430423 17.171505 2.752826 149.148310 -12.859625 -177.517279 -9.834690 -3.851346 -0.683000 21.894312 20.797918 -66.267279 20.407271 17.297354 92.824204 -0.021111 5.754437 -14.225511 0.566100 -4.818900 -13.392800 11.254643 7.314034 -2.579222 -30.805419 -7.319143 -8.832688 -2.558607 -14.561152 38.089838 -0.109866 14.964909 -7.835070 -0.672300 5.243200 -14.603600 -0.182134 1.896105 32.475347 -0.097373 -2.240071 -0.716537 -9.514994 -2.593910 8.083885 1.968143 14.233608 -8.072811 -19.594700 23.372792 -1.739544 -8.919100 10.360700 2.272400 -8.122808 -3.141199 3.599256 -42.781814 -4.003571 39.842977 131.722116 -48.705056 -96.380686 0.262812 1.108149 53.662564 53.566054 -16.012210 -22.351500 -7.125000 0.000000 0.000000 16.364100 3.011700 -16.165500 8.942263 4.750098 4.344306 59.689790 -17.179150 -0.315634 -72.143156 59.754944 -43.364023 -0.634883 -1.552845 -1.048579 -12.509701 18.662882 -4.166400 7.125000 0.000000 0.000000 10.630800 -9.563100 8.875200 
0.409730 17.126537 2.691376 148.305799 -12.910505 -177.302263 -9.848382 -3.933618 -0.740404 20.668927 21.525609 -63.811951 17.843811 17.393725 84.894357 -0.282867 7.610302 -13.092421 0.962600 -6.247100 -17.503200 11.487318 7.261573 -2.452421 -31.846363 -8.422304 -9.628908 -2.773069 -14.765353 39.245558 -0.257143 14.470117 -8.800224 -0.735900 5.480600 -15.284600 -0.501029 1.701826 31.693382 -0.172037 -2.722733 -0.676235 -9.894844 -2.800755 8.460989 2.135249 14.324500 -7.504118 -19.671288 23.497272 -1.951548 -9.038600 10.476100 2.065800 -8.322389 -3.133639 3.603087 -40.454284 -3.331790 34.314222 128.465675 -50.551309 -94.024515 0.237523 1.024413 52.092793 53.345426 -14.617376 -20.486900 -7.125000 0.000000 0.000000 16.581000 5.226000 -15.688300 9.005129 4.753117 4.324415 59.499407 -19.379900 -0.590709 -74.134432 59.981775 -45.256588 -0.602144 -1.508868 -2.080095 -11.975086 18.718195 -3.974900 7.125000 0.000000 0.000000 10.968300 -9.622600 9.154500 
0.387246 17.083629 2.626611 147.480879 -12.940886 -177.148037 -9.865936 -4.027009 -0.782547 19.543286 22.424627 -61.069506 15.148909 17.141920 76.490901 -0.413396 8.525576 -12.213878 1.116000 -6.711100 -18.862200 11.690477 7.243457 -2.369153 -32.838868 -9.303099 -10.103253 -2.964342 -14.939368 40.231488 -0.396961 13.968061 -9.697741 -0.708500 5.379700 -14.994800 -0.821149 1.480636 30.871343 -0.238771 -3.219473 -0.633744 -10.224214 -3.021191 8.878941 2.207506 14.426440 -7.011803 -19.754498 23.661146 -2.095127 -9.122800 10.606200 1.897300 -8.523349 -3.115295 3.598047 -38.310127 -2.798143 28.822064 123.609154 -52.836728 -90.301278 0.228144 0.939087 50.376108 52.822375 -14.292941 -19.642500 -7.125000 0.000000 0.000000 16.330100 6.041300 -15.165200 9.076580 4.744013 4.307908 59.036926 -21.561677 -0.698658 -75.832502 60.168212 -46.958249 -0.548120 -1.444955 -3.389981 -11.182760 18.490080 -3.644200 7.125000 0.000000 0.000000 11.456600 -10.009500 9.487700 
0.365927 17.045558 2.560502 146.722064 -12.997030 -177.066669 -9.874335 -4.125655 -0.807889 18.594397 23.055396 -57.846122 12.413154 16.486614 67.720193 -0.441645 8.990726 -12.082046 0.905500 -6.064200 -16.970700 11.838715 7.270665 -2.342419 -33.684722 -10.018953 -10.187018 -3.098906 -15.070613 40.932102 -0.529278 13.381307 -10.584828 -0.627200 5.067800 -14.102000 -1.061817 1.225888 29.996112 -0.298250 -3.721123 -0.583159 -10.565861 -3.239515 9.379569 2.252398 14.516748 -6.639524 -19.770079 23.852373 -2.068179 -9.142600 10.751100 1.804800 -8.722076 -3.076853 3.583455 -36.338846 -2.369379 23.545925 116.875784 -55.312523 -84.956165 0.218695 0.849789 48.857367 52.327625 -14.969968 -19.941000 -7.125000 0.000000 0.000000 15.838100 5.430100 -14.860600 9.146916 4.724312 4.296153 58.442722 -23.643109 -0.780606 -76.873366 60.320733 -48.142071 -0.492448 -1.380695 -4.580303 -10.560383 18.263754 -3.385200 7.125000 0.000000 0.000000 11.834100 -10.369000 9.726200 
0.351953 17.020028 2.494304 146.042331 -13.105100 -177.017353 -9.877143 -4.232493 -0.824726 17.941219 23.408594 -54.249910 9.746410 15.400647 58.738790 -0.448094 9.209951 -11.625598 0.643000 -5.129900 -14.279500 11.936957 7.319909 -2.349240 -34.333545 -10.662423 -10.039843 -3.189873 -15.171393 41.417247 -0.677960 12.631564 -11.749845 -0.760000 5.567500 -15.534600 -1.126284 0.822569 29.014692 -0.358613 -4.381267 -0.550505 -11.040915 -3.500689 9.872824 2.073601 14.670366 -6.264212 -19.655932 24.125540 -1.924871 -9.043200 10.958800 1.695700 -8.943429 -3.041050 3.550722 -34.541688 -1.867311 18.463411 107.863551 -57.638126 -77.687144 0.159651 0.755082 47.659146 50.441757 -14.868305 -18.406200 -7.125000 0.000000 0.000000 14.777000 6.616900 -13.442000 9.194375 4.688956 4.294754 57.574114 -25.625457 -0.553880 -77.378882 60.463719 -48.890777 -0.442086 -1.310082 -5.697486 -10.039740 18.021060 -3.164400 7.125000 0.000000 0.000000 12.149000 -10.735300 9.904500 
